# xmcd
#
# Track frame offsets: 
#        150
#        9535
#        21057
#        33905
#        45485
#        52890
#        65727
#        80100
#        91747
#
# Disc length: 1401 seconds
#
# Revision: 0
# Processed by: cddbd v1.4PL0 Copyright (c) Steve Scherf et al.
# Submitted via: ExactAudioCopy v0.90b4
#
DISCID=65057709
DTITLE=George Jones - Greatest Hits, Vol. 2
DYEAR=1900
DGENRE=Country
TTITLE0=World's Worst Loser
TTITLE1=You Comb Her Hair
TTITLE2=When I Woke Up From Dreaming
TTITLE3=Least Of All
TTITLE4=Ragged But Right
TTITLE5=Just A Girl I Used To Know
TTITLE6=It's Funny What A Fool Will Do
TTITLE7=Tarnished Angel
TTITLE8=Wedding Bells
EXTD=
EXTT0=
EXTT1=
EXTT2=
EXTT3=
EXTT4=
EXTT5=
EXTT6=
EXTT7=
EXTT8=
PLAYORDER=
